<?xml version="1.0" encoding="UTF-8" standalone="no"?>
<svg
   xmlns:dc="http://purl.org/dc/elements/1.1/"
   xmlns:cc="http://creativecommons.org/ns#"
   xmlns:rdf="http://www.w3.org/1999/02/22-rdf-syntax-ns#"
   xmlns:svg="http://www.w3.org/2000/svg"
   xmlns="http://www.w3.org/2000/svg"
   xmlns:sodipodi="http://sodipodi.sourceforge.net/DTD/sodipodi-0.dtd"
   xmlns:inkscape="http://www.inkscape.org/namespaces/inkscape"
   version="1.0"
   x="0px"
   y="0px"
   viewBox="0 0 110.94 110.94"
   enable-background="new 0 0 99.94 63.157"
   xml:space="preserve"
   id="svg3759"
   sodipodi:docname="logo.svg"
   inkscape:version="0.92.2 (5c3e80d, 2017-08-06)"
   width="110.94"
   height="110.94"><metadata
     id="metadata3765"><rdf:RDF><cc:Work
         rdf:about=""><dc:format>image/svg+xml</dc:format><dc:type
           rdf:resource="http://purl.org/dc/dcmitype/StillImage" /><dc:title></dc:title></cc:Work></rdf:RDF></metadata><defs
     id="defs3763" /><sodipodi:namedview
     pagecolor="#ffffff"
     bordercolor="#666666"
     borderopacity="1"
     objecttolerance="10"
     gridtolerance="10"
     guidetolerance="10"
     inkscape:pageopacity="0"
     inkscape:pageshadow="2"
     inkscape:window-width="1920"
     inkscape:window-height="1017"
     id="namedview3761"
     showgrid="true"
     showguides="false"
     inkscape:zoom="6.7134285"
     inkscape:cx="57.933899"
     inkscape:cy="61.274138"
     inkscape:window-x="-8"
     inkscape:window-y="-8"
     inkscape:window-maximized="1"
     inkscape:current-layer="svg3759"
     units="px"><inkscape:grid
       type="xygrid"
       id="grid1977" /></sodipodi:namedview><path
     d="M -6.714,83.080994"
     id="path3733"
     inkscape:connector-curvature="0" /><path
     d="m 13.179002,32.755002 c -6.014,0.009 -10.877,4.875 -10.892,10.896 0.015,5.98 4.878,10.842 10.892,10.841 5.989,10e-4 10.853,-4.861 10.841,-10.841 0.012,-6.021 -4.853,-10.887 -10.841,-10.896 z m 0,17.79 c -3.832,-10e-4 -6.926,-3.098 -6.946,-6.894 0.02,-3.842 3.114,-6.936 6.946,-6.947 3.807,0.011 6.902,3.105 6.896,6.947 0.005,3.796 -3.089,6.893 -6.896,6.894 z"
     id="path3735"
     style="fill:#702963;fill-opacity:1"
     inkscape:connector-curvature="0" /><path
     d="M -6.714,83.080994"
     id="path3737"
     inkscape:connector-curvature="0" /><path
     d="m 48.103,78.477007 c -8.298,-0.029 -8.298,11.147003 0,11.141003 h 48.068 c 8.075,0.007 8.075,-11.170003 0,-11.141003 z"
     id="path3739"
     style="fill:#702963;fill-opacity:1"
     inkscape:connector-curvature="0" /><polygon
     points="55.76,3.398 55.76,13.541 60.056,13.541 60.056,3.398 "
     id="polygon3741"
     style="fill:#702963;fill-opacity:1"
     transform="translate(2.287002,26.461001)" /><path
     d="M 40.301,74.385994"
     id="path3743"
     inkscape:connector-curvature="0" /><polygon
     points="49.264,1.498 49.264,3.697 66.603,3.697 66.603,1.498 "
     id="polygon3745"
     style="fill:#702963;fill-opacity:1"
     transform="translate(2.287002,26.461001)" /><path
     d="M 40.352,68.489994"
     id="path3747"
     inkscape:connector-curvature="0" /><path
     d="M 70.388003,26.461002 H 98.117 c 3.69,-0.018 3.69,5.269 0,5.246 H 70.388003 c -3.574,0.023 -3.574,-5.264 0,-5.246 z"
     id="path3749"
     style="fill:#702963;fill-opacity:1"
     inkscape:connector-curvature="0" /><path
     d="m 22.371002,26.461002 h 27.38 c 3.69,-0.018 3.69,5.269 0,5.246 h -27.38 c -3.921,0.023 -3.974,-5.264 0,-5.246 z"
     id="path3751"
     style="fill:#702963;fill-opacity:1"
     inkscape:connector-curvature="0" /><path
     d="M 46.2,89.424997"
     id="path3753"
     inkscape:connector-curvature="0" /><path
     d="M 57.992,89.424997"
     id="path3755"
     inkscape:connector-curvature="0" /><path
     d="m 104.324,62.636002 -5.547,-13.392 c -1.967,-4.91 -6.234,-9.505 -13.89,-9.491 H 16.133 c -4.365998,-0.015 -5.304998,5.673 -1.449,7.146 l 31.627,12.589 2.798,6.993997 c 0.574,2.19 2.353,4.784 5.897,4.798 h 43.019 c 4.913,-0.037 8.259,-4.045 6.299,-8.643997 z m -31.93,-6.696 H 65 v -11.892 h 7.394 z m 11.743,0 h -7.346 v -11.892 h 7.346 z m 4.496,0.052 v -11.442 c 2.297,0.547 4.588,2.594 6.097,5.996 l 2.346,5.446 z"
     id="path3757"
     style="fill:#702963;fill-opacity:1"
     inkscape:connector-curvature="0" /></svg>